# xmcd
#
# Track frame offsets: 
#        150
#        16774
#        34538
#        55948
#        72400
#        90277
#        104307
#        122842
#        138108
#        158874
#        176779
#        204830
#
# Disc length: 2916 seconds
#
# Revision: 0
# Processed by: cddbd v1.5.2PL0 Copyright (c) Steve Scherf et al.
# Submitted via: ExactAudioCopy v1.2
#
DISCID=930b620c
DTITLE=Rod Piazza - His Instrumentals [CD1]
DYEAR=2018
DGENRE=Blues
TTITLE0=The Upsetter
TTITLE1=4811 Watsworth
TTITLE2=Stratospheric
TTITLE3=Harpburn
TTITLE4=Ghostin'
TTITLE5=The Bounce
TTITLE6=Scary Boogie
TTITLE7=Snap Crackle Hop
TTITLE8=West Coast Midnight Blues
TTITLE9=Greasy Foot
TTITLE10=Devil's Foot
TTITLE11=Deep Fried
EXTD=
EXTT0=
EXTT1=
EXTT2=
EXTT3=
EXTT4=
EXTT5=
EXTT6=
EXTT7=
EXTT8=
EXTT9=
EXTT10=
EXTT11=
PLAYORDER=
